<svg xmlns="http://www.w3.org/2000/svg" viewBox="0 0 863.19 525.43"><defs><style>.cls-1,.cls-6{fill:#d1d0d1;}.cls-1,.cls-4,.cls-5{stroke:#000;stroke-width:0.5px;}.cls-1,.cls-3,.cls-4,.cls-5{stroke-miterlimit:10;}.cls-2{fill:#fff;}.cls-3{fill:#333;stroke:#999;stroke-width:6px;}.cls-4{fill:none;}.cls-5{fill:#999;}</style></defs><title>Fichier 36</title><g id="Calque_2" data-name="Calque 2"><g id="coque_externe" data-name="coque externe"><path class="cls-1" d="M862.79,192.5c-1.75-13.25-6.25-15.5-19.75-17l.25-25.25c9.2-2.72,5.88-63.44-1.83-65.33l.33-73.67s3.67-4-8.33-6l-592,2.67L238.12.25h-30s1.67,10-3.33,10-105.33.67-105.33.67-17.33,6-18.67,19l.33,23.67H25.79S10.29,60.25,6.79,70,2,101.25,2.54,104l.75.58v36.08s-2.92-.92-3,1.83,0,19.67,0,19.67,2.17,4,2.17,12.42V229.5s21.08,20.81,26.21,21.44,27.25,25.63,27.25,25.63a6,6,0,0,0,1.69,6.56c3.19,2.94,53.6,55.13,55.27,53.88s4.58-1.58,5.42-2.58l14.12,15s6.38,5.25,5.63,19.13l.06,30.38s-3.81-.87-3.94,0-.62,57.38,1.38,57.38,3,5,8.5,1.5c0,0,14.75,6.5,14.75,7.5s7,8.75,11.5,8.75,31.83,1.58,47.83,24.58l22.33,11.67s12.67-2.33,15.17,6,15.17,9.83,17.5,8.5l38.33-103.5s6.67-44.33,41.33-43.67H368.1l.69,2.17,25.83.5,5.33-5,57-1.5a1.92,1.92,0,0,0,2.13,2.38h64.75l.63-.87,28.25-.37s7.38.63,8.88-9.5,0-30.75,0-30.75h1.63V305.75h-1.5l-.12-33.25s30,4.5,29.25-27L744,246.75s11.5-.5,14-14.75,4.5-18,4.5-18l88.25-1.75S864.54,205.75,862.79,192.5Zm-616-16.25H80c-9.12-30.08-11.29-78.92-2.17-109h169C237.06,96,237.83,145,246.76,176.25Zm527.69,0H447.9c-12.14-44.07-11.38-76.64,0-120l321.55-.33S800.45,127.8,774.45,176.25Z"/><circle class="cls-2" cx="128.12" cy="36.25" r="14.33"/><circle class="cls-2" cx="356.37" cy="36.25" r="14.33"/><path class="cls-2" d="M596.67,24.24a14.34,14.34,0,1,0,2.45,8A14.4,14.4,0,0,0,596.67,24.24Z"/><path class="cls-2" d="M822.67,24.82a14.3,14.3,0,0,0-11.89-6.32h0a14.33,14.33,0,1,0,11.89,6.32Z"/><path class="cls-2" d="M859.49,186.89a14.34,14.34,0,1,0,2.45,8A14.4,14.4,0,0,0,859.49,186.89Z"/><path class="cls-2" d="M569.87,239.25a14.34,14.34,0,1,0,14.33,14.33A14.33,14.33,0,0,0,569.87,239.25Z"/><path class="cls-2" d="M48,219.25a14.34,14.34,0,1,0,2.45,8A14.4,14.4,0,0,0,48,219.25Z"/><circle class="cls-2" cx="264.87" cy="471.26" r="14.33"/><circle class="cls-3" cx="254.54" cy="381.25" r="10.33"/><circle class="cls-3" cx="226.54" cy="280.25" r="10.33"/><circle class="cls-3" cx="338.04" cy="256.75" r="10.33"/><line class="cls-4" x1="81.12" y1="53.58" x2="839.6" y2="56.25"/><path class="cls-5" d="M43.79,175.57s-40-8.85-38.48-57.21S18.79,65.25,43.79,53.58"/><path class="cls-1" d="M840.47,178.21l-789-2.62-5.33,0H43.79s-59-46,0-122l6.33,24.67-1,96.28-2.05.83"/><rect class="cls-6" x="43.88" y="53.58" width="10.89" height="121.77"/></g></g></svg>