<svg xmlns="http://www.w3.org/2000/svg" viewBox="0 0 169.18 169.19"><defs><style>.cls-1{fill:#8e8d8e;}.cls-1,.cls-2,.cls-4,.cls-5{stroke:#000;stroke-miterlimit:10;stroke-width:0.25px;}.cls-2,.cls-3{fill:#b3b3b3;}.cls-4{fill:#a4a3a4;}.cls-5{fill:#ccc;}</style></defs><title>gear_2</title><g id="Calque_2" data-name="Calque 2"><g id="Calque_6" data-name="Calque 6"><circle class="cls-1" cx="84.58" cy="84.64" r="74.5"/><polygon class="cls-2" points="89 0.31 83.67 10.12 92.5 10.56 89 0.31"/><polygon class="cls-2" points="101.03 1.81 94.35 10.75 103.02 12.45 101.03 1.81"/><polygon class="cls-2" points="112.71 5.02 104.83 12.91 113.16 15.84 112.71 5.02"/><polygon class="cls-2" points="123.82 9.86 114.88 16.55 122.71 20.63 123.82 9.86"/><polygon class="cls-2" points="134.12 16.25 124.32 21.58 131.48 26.75 134.12 16.25"/><polygon class="cls-2" points="143.39 24.04 132.93 27.92 139.28 34.06 143.39 24.04"/><polygon class="cls-2" points="151.46 33.08 140.55 35.42 145.96 42.41 151.46 33.08"/><polygon class="cls-2" points="158.15 43.18 147.02 43.94 151.37 51.62 158.15 43.18"/><polygon class="cls-2" points="163.33 54.14 152.2 53.29 155.41 61.52 163.33 54.14"/><polygon class="cls-2" points="166.89 65.72 155.99 63.29 157.99 71.9 166.89 65.72"/><polygon class="cls-2" points="168.75 77.69 158.31 73.73 159.06 82.53 168.75 77.69"/><polygon class="cls-2" points="168.88 89.81 159.12 84.4 158.59 93.21 168.88 89.81"/><polygon class="cls-2" points="167.27 101.82 158.38 95.07 156.61 103.72 167.27 101.82"/><polygon class="cls-2" points="163.96 113.48 156.13 105.52 153.14 113.83 163.96 113.48"/><polygon class="cls-2" points="159.01 124.54 152.41 115.55 148.25 123.34 159.01 124.54"/><polygon class="cls-2" points="152.54 134.78 147.29 124.94 142.06 132.05 152.54 134.78"/><polygon class="cls-2" points="144.66 143.99 140.88 133.5 134.68 139.79 144.66 143.99"/><polygon class="cls-2" points="135.55 151.98 133.31 141.05 126.28 146.39 135.55 151.98"/><polygon class="cls-2" points="125.39 158.58 124.73 147.44 117.01 151.72 125.39 158.58"/><polygon class="cls-2" points="114.39 163.66 115.33 152.54 107.08 155.67 114.39 163.66"/><polygon class="cls-2" points="102.77 167.11 105.3 156.24 96.68 158.16 102.77 167.11"/><polygon class="cls-2" points="90.78 168.87 94.84 158.47 86.03 159.13 90.78 168.87"/><polygon class="cls-2" points="78.67 168.88 84.17 159.18 75.36 158.58 78.67 168.88"/><polygon class="cls-2" points="66.67 167.17 73.5 158.35 64.87 156.49 66.67 167.17"/><polygon class="cls-2" points="55.05 163.76 63.07 156 54.79 152.93 55.05 163.76"/><polygon class="cls-2" points="44.03 158.72 53.08 152.19 45.32 147.97 44.03 158.72"/><polygon class="cls-2" points="33.84 152.15 43.74 146.99 36.66 141.69 33.84 152.15"/><polygon class="cls-2" points="24.7 144.19 35.23 140.5 28.99 134.25 24.7 144.19"/><polygon class="cls-2" points="16.8 135.01 27.75 132.86 22.47 125.78 16.8 135.01"/><polygon class="cls-2" points="10.29 124.79 21.43 124.23 17.22 116.47 10.29 124.79"/><polygon class="cls-2" points="5.31 113.74 16.42 114.78 13.36 106.5 5.31 113.74"/><polygon class="cls-2" points="1.96 102.1 12.8 104.72 10.96 96.08 1.96 102.1"/><polygon class="cls-2" points="0.31 90.09 10.67 94.24 10.08 85.43 0.31 90.09"/><polygon class="cls-2" points="0.4 77.98 10.06 83.56 10.74 74.76 0.4 77.98"/><polygon class="cls-2" points="2.22 66 10.98 72.91 12.91 64.29 2.22 66"/><polygon class="cls-2" points="5.74 54.4 13.42 62.49 16.56 54.24 5.74 54.4"/><polygon class="cls-2" points="10.88 43.43 17.32 52.54 21.61 44.82 10.88 43.43"/><polygon class="cls-2" points="17.53 33.3 22.61 43.24 27.96 36.22 17.53 33.3"/><polygon class="cls-2" points="25.57 24.24 29.17 34.8 35.47 28.61 25.57 24.24"/><polygon class="cls-2" points="34.82 16.41 36.87 27.38 44 22.16 34.82 16.41"/><polygon class="cls-2" points="45.1 9.99 45.56 21.14 53.36 17 45.1 9.99"/><polygon class="cls-2" points="56.19 5.11 55.05 16.21 63.36 13.22 56.19 5.11"/><polygon class="cls-2" points="67.86 1.87 65.15 12.69 73.8 10.92 67.86 1.87"/><polygon class="cls-2" points="79.88 0.33 75.65 10.65 84.46 10.14 79.88 0.33"/></g><g id="g3"><polygon class="cls-3" points="82.77 41.89 80.52 37.2 82.85 32.4 85.41 37.08 82.77 41.89"/><path d="M82.76,42.16l-2.39-5,0-.05,2.44-5,2.71,4.95Zm-2.11-5,2.12,4.41,2.49-4.54-2.41-4.4Z"/><polygon class="cls-3" points="88.72 42.05 87.13 37.1 90.11 32.66 92 37.65 88.72 42.05"/><path d="M88.67,42.32,87,37.08,87,37l3.11-4.63,2,5.28Zm-1.4-5.2,1.49,4.66,3.1-4.15-1.78-4.7Z"/><polygon class="cls-3" points="94.58 43.03 93.7 37.91 97.27 33.93 98.44 39.13 94.58 43.03"/><path d="M94.5,43.29l-.93-5.42,0,0,3.73-4.16,1.25,5.5Zm-.67-5.35.83,4.82,3.64-3.68L97.2,34.2Z"/><polygon class="cls-3" points="100.26 44.82 100.1 39.63 104.18 36.18 104.62 41.5 100.26 44.82"/><path d="M100.14,45.07l-.17-5.5,0,0,4.27-3.6.47,5.62Zm.08-5.39.15,4.89,4.12-3.14-.42-5Z"/><polygon class="cls-3" points="105.63 47.38 106.19 42.21 110.71 39.37 110.41 44.69 105.63 47.38"/><path d="M105.48,47.61l.59-5.47.05,0,4.72-3-.31,5.63Zm.83-5.32-.53,4.87,4.51-2.54.28-5Z"/><polygon class="cls-3" points="110.59 50.66 111.87 45.62 116.73 43.43 115.7 48.66 110.59 50.66"/><path d="M110.41,50.86l1.35-5.33.06,0,5.09-2.29-1.09,5.54ZM112,45.71l-1.2,4.75,4.82-1.89,1-4.93Z"/><polygon class="cls-3" points="115.06 54.59 117.02 49.78 122.14 48.29 120.39 53.32 115.06 54.59"/><path d="M114.85,54.77l2.07-5.1.06,0,5.36-1.56-1.85,5.33Zm2.26-4.89-1.84,4.53,5-1.2,1.65-4.74Z"/><polygon class="cls-3" points="118.93 59.11 121.54 54.61 126.82 53.85 124.39 58.59 118.93 59.11"/><path d="M118.7,59.26l2.76-4.76h.06l5.52-.8-2.57,5Zm2.92-4.53L119.16,59l5.15-.49L126.6,54Z"/><polygon class="cls-3" points="122.14 64.12 125.34 60.03 130.68 60 127.62 64.36 122.14 64.12"/><path d="M121.89,64.24l3.39-4.33h.06l5.58,0-3.24,4.62Zm3.52-4.08-3,3.85,5.17.23,2.89-4.11Z"/><polygon class="cls-3" points="124.62 69.53 128.36 65.92 133.66 66.63 130.01 70.53 124.62 69.53"/><path d="M124.36,69.61l4-3.82h.06l5.53.75-3.85,4.12Zm4-3.56-3.52,3.4,5.09.94,3.43-3.67Z"/><polygon class="cls-3" points="126.33 75.23 130.54 72.17 135.68 73.61 131.53 76.97 126.33 75.23"/><path d="M126.06,75.27,130.51,72l.06,0,5.37,1.51-4.39,3.55Zm4.5-3-4,2.88,4.91,1.64,3.9-3.16Z"/><polygon class="cls-3" points="127.23 81.11 131.82 78.67 136.72 80.81 132.15 83.55 127.23 81.11"/><path d="M127,81.11l4.86-2.58.06,0L137,80.79l-4.84,2.91Zm4.87-2.31-4.32,2.3,4.63,2.31,4.3-2.59Z"/><polygon class="cls-3" points="127.31 87.06 132.2 85.28 136.74 88.07 131.84 90.16 127.31 87.06"/><path d="M127,87l5.17-1.88.05,0L137,88.09l-5.19,2.21Zm5.14-1.61-4.6,1.68L131.85,90l4.62-2Z"/><polygon class="cls-3" points="126.56 92.96 131.65 91.87 135.76 95.27 130.62 96.66 126.56 92.96"/><path d="M126.3,92.89l5.38-1.15,0,0,4.3,3.55-5.45,1.47Zm5.32-.88-4.79,1,3.82,3.49,4.85-1.3Z"/><polygon class="cls-3" points="125 98.7 130.19 98.33 133.79 102.27 128.5 102.93 125 98.7"/><path d="M124.75,98.59l5.49-.39,0,0,3.77,4.12-5.6.7Zm5.39-.13-4.88.35,3.3,4,5-.62Z"/><polygon class="cls-3" points="122.67 104.17 127.85 104.52 130.88 108.92 125.54 108.84 122.67 104.17"/><path d="M122.43,104l5.49.37,0,0,3.16,4.6-5.64-.09Zm5.35.61-4.88-.33,2.72,4.4,5,.08Z"/><polygon class="cls-3" points="119.59 109.26 124.68 110.33 127.06 115.11 121.79 114.29 119.59 109.26"/><path d="M119.38,109.09l5.38,1.13,0,.05,2.49,5-5.57-.87Zm5.22,1.35-4.79-1,2.08,4.74,5,.77Z"/><polygon class="cls-3" points="115.84 113.88 120.73 115.64 122.42 120.7 117.32 119.16 115.84 113.88"/><path d="M115.65,113.68l5.18,1.87,0,.06,1.78,5.29-5.4-1.63Zm5,2.06L116,114.08l1.4,5,4.81,1.45Z"/><polygon class="cls-3" points="111.48 117.93 116.08 120.36 117.06 125.6 112.22 123.37 111.48 117.93"/><path d="M111.32,117.71l4.87,2.57v.06l1,5.49-5.12-2.37Zm4.64,2.73-4.33-2.28.7,5.13,4.56,2.11Z"/><polygon class="cls-3" points="106.6 121.34 110.82 124.38 111.06 129.71 106.58 126.83 106.6 121.34"/><path d="M106.48,121.1l4.46,3.22v.06l.25,5.58-4.74-3.05Zm4.22,3.35-4-2.86,0,5.17,4.22,2.72Z"/><polygon class="cls-3" points="101.3 124.04 105.06 127.63 104.56 132.95 100.52 129.47 101.3 124.04"/><path d="M101.21,123.78l4,3.8v.06l-.52,5.56-4.27-3.68Zm3.72,3.9-3.54-3.38-.74,5.12,3.8,3.28Z"/><polygon class="cls-3" points="95.67 125.98 98.9 130.06 97.67 135.25 94.15 131.25 95.67 125.98"/><path d="M95.62,125.71,99,130v.06l-1.29,5.43L94,131.28Zm3.14,4.38-3-3.84-1.44,5L97.6,135Z"/><polygon class="cls-3" points="89.83 127.12 92.46 131.6 90.52 136.58 87.59 132.12 89.83 127.12"/><path d="M89.82,126.84l2.78,4.75,0,.06-2,5.2-3.1-4.72Zm2.5,4.77-2.47-4.23-2.12,4.72,2.76,4.2Z"/><polygon class="cls-3" points="83.89 127.43 85.87 132.24 83.26 136.9 80.98 132.08 83.89 127.43"/><path d="M83.92,127.16,86,132.25l0,.05-2.73,4.87-2.41-5.1Zm1.81,5.07-1.86-4.53-2.75,4.38,2.15,4.54Z"/><polygon class="cls-3" points="77.97 126.92 79.26 131.96 76.03 136.21 74.43 131.12 77.97 126.92"/><path d="M78,126.66,79.39,132l0,0L76,136.48l-1.68-5.38Zm1.09,5.28-1.22-4.74-3.33,4,1.5,4.79Z"/><polygon class="cls-3" points="72.17 125.6 72.75 130.76 68.96 134.53 68.09 129.26 72.17 125.6"/><path d="M72.26,125.34l.61,5.47,0,0-4,3.93L68,129.22Zm.35,5.38-.55-4.86-3.85,3.46.82,5Z"/><polygon class="cls-3" points="66.61 123.48 66.46 128.68 62.19 131.88 62.06 126.55 66.61 123.48"/><path d="M66.74,123.24l-.15,5.5,0,0-4.47,3.34-.14-5.64Zm-.4,5.37.13-4.89-4.29,2.89.13,5Z"/><polygon class="cls-3" points="61.39 120.61 60.53 125.74 55.86 128.31 56.46 123.02 61.39 120.61"/><path d="M61.56,120.39l-.91,5.43-.05,0-4.89,2.69.64-5.61Zm-1.14,5.27.81-4.83-4.65,2.27-.57,5Z"/><polygon class="cls-3" points="56.63 117.05 55.07 122.01 50.08 123.91 51.41 118.75 56.63 117.05"/><path d="M56.82,116.85l-1.66,5.25-.06,0-5.22,2,1.41-5.46ZM55,121.91l1.47-4.67-4.92,1.6-1.26,4.86Z"/><polygon class="cls-3" points="52.41 112.86 50.17 117.55 44.97 118.74 47 113.81 52.41 112.86"/><path d="M52.62,112.69l-2.37,5H50.2l-5.44,1.24,2.16-5.21Zm-2.54,4.75L52.19,113l-5.1.9-1.92,4.64Z"/><polygon class="cls-3" points="48.8 108.12 45.94 112.46 40.62 112.92 43.32 108.32 48.8 108.12"/><path d="M49,108l-3,4.59h-.06l-5.56.48,2.86-4.86Zm-3.18,4.35,2.7-4.08-5.17.19-2.55,4.33Z"/><polygon class="cls-3" points="45.89 102.93 42.45 106.83 37.12 106.55 40.44 102.37 45.89 102.93"/><path d="M46.15,102.83,42.51,107h-.06l-5.57-.3,3.51-4.42ZM42.4,106.7,45.64,103l-5.15-.53-3.12,3.93Z"/><polygon class="cls-3" points="43.73 97.39 39.78 100.77 34.54 99.75 38.41 96.08 43.73 97.39"/><path d="M44,97.33l-4.18,3.58h-.06l-5.48-1.07,4.09-3.89Zm-4.25,3.31,3.72-3.19-5-1.24-3.64,3.46Z"/><polygon class="cls-3" points="42.36 91.6 37.98 94.41 32.93 92.67 37.27 89.56 42.36 91.6"/><path d="M42.63,91.58l-4.63,3-.06,0-5.28-1.82,4.59-3.29ZM38,94.27l4.12-2.64-4.8-1.92L33.2,92.63Z"/><polygon class="cls-3" points="41.8 85.68 37.08 87.85 32.32 85.43 37.04 82.95 41.8 85.68"/><path d="M42.07,85.69l-5,2.3L37,88l-5-2.53,5-2.62Zm-5,2,4.45-2L37,83.09l-4.45,2.33Z"/><polygon class="cls-3" points="42.07 79.73 37.09 81.23 32.72 78.17 37.73 76.37 42.07 79.73"/><path d="M42.34,79.79l-5.27,1.58,0,0-4.58-3.2,5.31-1.9Zm-5.23,1.31,4.69-1.41-4.09-3.17L33,78.21Z"/><polygon class="cls-3" points="43.16 73.89 38.02 74.67 34.11 71.04 39.34 69.96 43.16 73.89"/><path d="M43.42,74,38,74.81l0,0L33.85,71l5.52-1.14Zm-5.36.57,4.84-.74-3.61-3.71-4.92,1Z"/><polygon class="cls-3" points="45.05 68.25 39.86 68.31 36.49 64.17 41.81 63.82 45.05 68.25"/><path d="M45.3,68.37l-5.5.07,0,0-3.52-4.33,5.63-.37Zm-5.38-.18,4.9-.06L41.75,64l-5,.33Z"/><polygon class="cls-3" points="47.71 62.92 42.55 62.27 39.79 57.7 45.11 58.09 47.71 62.92"/><path d="M47.94,63.08l-5.46-.69,0-.05-2.89-4.78,5.63.42Zm-5.31-.93,4.86.62L45,58.21l-5-.37Z"/><polygon class="cls-3" points="51.08 58.02 46.06 56.66 43.96 51.75 49.17 52.87 51.08 58.02"/><path d="M51.28,58.2,46,56.76l0-.06-2.2-5.13,5.51,1.19Zm-5.13-1.65,4.72,1.28L49.08,53l-4.91-1.06Z"/><polygon class="cls-3" points="55.1 53.63 50.32 51.58 48.92 46.43 53.92 48.27 55.1 53.63"/><path d="M55.27,53.84l-5.06-2.17,0-.06-1.46-5.39L54,48.18Zm-4.85-2.35,4.5,1.93-1.11-5.05L49.1,46.63Z"/><polygon class="cls-3" points="59.68 49.84 55.23 47.15 54.56 41.85 59.26 44.37 59.68 49.84"/><path d="M59.83,50.07l-4.71-2.85v-.06l-.7-5.54,5,2.66Zm-4.48-3,4.19,2.53-.4-5.16-4.43-2.37Z"/><polygon class="cls-3" points="64.75 46.72 60.72 43.44 60.79 38.1 65.09 41.25 64.75 46.72"/><path d="M64.86,47,60.59,43.5v-.06l.07-5.58,4.56,3.33Zm-4-3.59,3.8,3.09L65,41.31l-4.06-3Z"/><polygon class="cls-3" points="70.2 44.34 66.66 40.53 67.47 35.25 71.3 38.96 70.2 44.34"/><path d="M70.27,44.6l-3.75-4v-.06L67.38,35l4.05,3.93Zm-3.48-4.11,3.33,3.59,1-5.07-3.61-3.49Z"/><polygon class="cls-3" points="75.93 42.73 72.95 38.47 74.49 33.36 77.76 37.56 75.93 42.73"/><path d="M76,43l-3.15-4.51,0-.06,1.6-5.35,3.47,4.45Zm-2.88-4.56,2.8,4,1.73-4.88-3.09-4Z"/><circle class="cls-4" cx="84.58" cy="84.64" r="47.5"/><circle class="cls-5" cx="84.58" cy="84.64" r="8.01"/></g></g></svg>