<svg xmlns="http://www.w3.org/2000/svg" viewBox="0 0 862.94 525.18"><defs><style>.cls-1{fill:#d1d0d1;}.cls-1,.cls-12,.cls-13,.cls-14,.cls-16,.cls-19,.cls-2,.cls-20,.cls-3,.cls-32,.cls-33,.cls-36,.cls-38,.cls-41,.cls-43{stroke:#000;}.cls-1,.cls-11,.cls-12,.cls-13,.cls-14,.cls-16,.cls-18,.cls-19,.cls-2,.cls-20,.cls-23,.cls-26,.cls-27,.cls-28,.cls-29,.cls-3,.cls-32,.cls-33,.cls-34,.cls-36,.cls-38,.cls-41,.cls-43,.cls-6,.cls-9{stroke-miterlimit:10;}.cls-1,.cls-13,.cls-2,.cls-3,.cls-36,.cls-38,.cls-41,.cls-43{stroke-width:0.25px;}.cls-2{fill:#2a282a;}.cls-12,.cls-14,.cls-16,.cls-27,.cls-3,.cls-32,.cls-34,.cls-6{fill:none;}.cls-4{fill:#2b292b;}.cls-5{fill:#010001;}.cls-26,.cls-28,.cls-29,.cls-6,.cls-9{stroke:#292729;}.cls-7{fill:#222123;}.cls-8{fill:#262526;}.cls-9{fill:#c5c4c6;}.cls-10{fill:#282728;}.cls-11,.cls-19{fill:#e6e6e6;}.cls-11,.cls-34{stroke:#1a1a1a;}.cls-11,.cls-16,.cls-19,.cls-20,.cls-29,.cls-34{stroke-width:0.5px;}.cls-12,.cls-27{stroke-width:6px;}.cls-15{fill:#1c1c1d;}.cls-17{fill:#262527;}.cls-18{fill:#999;stroke:#504f50;}.cls-20,.cls-33{fill:#fff;}.cls-21{fill:#b47314;}.cls-22{fill:#1b191b;}.cls-23,.cls-43{fill:#696769;}.cls-23{stroke:#696769;}.cls-24{fill:#f9f8fa;}.cls-25{fill:#2a292b;}.cls-26{fill:#ceccce;}.cls-27{stroke:#a91108;}.cls-28{fill:#a19fa1;}.cls-29{fill:#f4f2f4;}.cls-30{fill:#3d3d41;}.cls-31{fill:#131213;}.cls-32,.cls-33{stroke-width:0.75px;}.cls-35{fill:#000001;}.cls-36{fill:#f9f8f9;}.cls-37{fill:#82663d;}.cls-38{fill:#b1afb0;}.cls-39{fill:#020102;}.cls-40{fill:#252625;}.cls-41{fill:#e1dfe1;}.cls-42{fill:#3c3b3c;}</style></defs><title>Fichier 35</title><g id="Calque_2" data-name="Calque 2"><g id="coque"><path class="cls-1" d="M862.66,192.38c-1.75-13.25-6.25-15.5-19.75-17l.25-25.25-7.25-10.5S834,86.46,841.33,84.79l.33-73.67s3.67-4-8.33-6l-592,2.67L238,.13H208s1.67,10-3.33,10-105.33.67-105.33.67-17.33,6-18.67,19L81,53.46H25.66s-15.5,6.67-19,16.42-4.75,31.25-4.25,34l.75.58v36.08s-2.92-.92-3,1.83S.16,162,.16,162s2.17,4,2.17,12.42v54.92s21.08,20.81,26.21,21.44,27.25,25.63,27.25,25.63A6,6,0,0,0,57.47,283c3.19,2.94,53.6,55.13,55.27,53.88s4.58-1.58,5.42-2.58l14.12,15s6.38,5.25,5.63,19.13l.06,30.38s-3.81-.87-3.94,0-.62,57.38,1.38,57.38,3,5,8.5,1.5c0,0,14.75,6.5,14.75,7.5s7,8.75,11.5,8.75S202,475.46,218,498.46l22.33,11.67s12.67-2.33,15.17,6,15.17,9.83,17.5,8.5l38.33-103.5s6.67-44.33,41.33-43.67H368l.69,2.17,25.83.5,5.33-5,57-1.5a1.92,1.92,0,0,0,2.13,2.38h64.75l.63-.87,28.25-.37s7.38.63,8.88-9.5,0-30.75,0-30.75H563V305.63h-1.5l-.12-33.25s30,4.5,29.25-27l153.25,1.25s11.5-.5,14-14.75,4.5-18,4.5-18l88.25-1.75S864.41,205.63,862.66,192.38Zm-595.5-54.25H86.39V83.82H267.16Z"/><polygon class="cls-2" points="23.54 164.38 23.54 172.13 29.41 173.88 29.41 164.38 23.54 164.38"/><path class="cls-2" d="M23.54,217.13s-2.37,6.38-1.25,7.75-3.25,5.38-8.75-2.37l1-50.37h9l5.88,1.75H23.54Z"/><line class="cls-3" x1="14.54" y1="162.63" x2="14.54" y2="172.13"/><path class="cls-4" d="M22.27,221.41s14.14-15.85,24-4.1.37,21.13-4.06,23.63c0,0,16.13-.94,16.5-18.94s-26.75-19.75-35.12-4.87C23.54,217.13,21.91,221.13,22.27,221.41Z"/><circle class="cls-5" cx="36" cy="227.14" r="7.67"/><path class="cls-6" d="M24.25,248.39s7.13.62,7.3-.14,0-7.45,0-7.45H43.3"/><path class="cls-7" d="M36,240.94l27.92,28.35s.25,3-2.12,3.34c0,0-5.65,1.76-6,3.81,0,0,6.64-5.37,8.13-3.16L117,325.7s0,8.3-4.29,11.18c0,0,12.92-3.5,10.67-13,0,0,0-2.12-3.5-5.25s-77.75-77.69-77.75-77.69Z"/><path class="cls-8" d="M115.45,295.45s4-6.09,7-2.54,29.68,29.68,29.68,29.68,4.38,2.79-1.94,6.45S122,302.47,122,302.47Z"/><rect class="cls-9" x="107.18" y="311.26" width="49.26" height="4.76" rx="1.91" ry="1.91" transform="translate(260.38 -1.34) rotate(45)"/><path class="cls-6" d="M123.41,323.88l17.75,16.92s7,3.92,7,16.75v84.71s-.62-36.12-1.87-36.25-3.5-5.87-12.25-7.25"/><path class="cls-10" d="M148.16,442.25l1.13,3.25,79.25,38.88s8.63,11.25,19.88,8.25l22.38,11.5-2.25,8.25a9.91,9.91,0,0,1-5.62-1.5l-3.5-.62s-3.86-12-15.63-8.25l-20.62-11.62s-24-24.75-48.37-25.75L162,458.13s-8.12-8.62-15-6.87Z"/><circle class="cls-11" cx="190.09" cy="181.17" r="17.11"/><path class="cls-12" d="M100.16,501.63c11.58-2.58,28.66-8.34,41-23,13.29-15.79,7.57-25.86,18-34,18-14.08,42.66,10.15,95,4.5,17.79-1.92,27.31-6,33-13.5,6.4-8.38,3.16-14.66,8-30,0,0,6.85-21.72,24.5-37.5,15.58-13.93,33.49-17,43.5-19,48.2-9.65,40.39-20.11,109.5-39.5a659.89,659.89,0,0,1,129-22.5"/><circle class="cls-13" cx="254.41" cy="381.13" r="4"/><circle class="cls-13" cx="337.91" cy="256.62" r="4"/><circle class="cls-13" cx="226.41" cy="280.13" r="4"/><circle class="cls-13" cx="441.91" cy="359.13" r="4"/><path class="cls-14" d="M270.79,504.13l39-106s6.61-31.67,35.41-29.67l23.1-.09-.31,9.09"/><path class="cls-15" d="M368.29,366.38V371s28.88,2,30.5,0,2-4.75-3.75-4.62S368.29,366.38,368.29,366.38Z"/><polyline class="cls-16" points="458.91 376 458.91 366.63 523.83 366.63 524.29 375.13"/><rect x="458.41" y="364.46" width="57.33" height="2.17"/><polyline class="cls-16" points="561.41 334.5 554.91 334.5 553.41 332.14 553.41 306.54 563.04 305.63"/><polygon class="cls-5" points="537.25 338.1 460.83 324.29 458.41 342.46 526.03 355.13 537.25 338.1"/><circle class="cls-17" cx="543.16" cy="354.18" r="17.13"/><polygon class="cls-18" points="547.93 358.93 543.97 357.59 540.62 360.1 540.67 355.92 537.25 353.51 541.24 352.26 542.48 348.27 544.89 351.68 549.07 351.62 546.58 354.97 547.93 358.93"/><circle class="cls-19" cx="740.16" cy="217.29" r="7.83"/><circle class="cls-20" cx="846.11" cy="194.7" r="7.83"/><circle class="cls-21" cx="810.66" cy="118.23" r="12"/><circle class="cls-11" cx="61.95" cy="182.52" r="17.11"/><rect class="cls-22" x="22.22" y="64.79" width="382.45" height="19.7"/><line class="cls-23" x1="46" y1="161.79" x2="397.74" y2="161.79"/><rect class="cls-23" x="41.12" y="138.98" width="356.62" height="30.15"/><path class="cls-16" d="M88.33,64.79v-33s.33-13.33,11.83-13.67l722.5-6s16.5-1.5,12.5,15v177.5l-68.5,2s-7.5-2.49-8.5,5l-7,23.33s.17,3.83-4.33,3.83l-155.17,1.67-1.5-4.5-35.67.17.67,35.5,6.25.75"/><circle class="cls-24" cx="570.33" cy="252.46" r="5.91"/><path class="cls-25" d="M167.5,433.63l3.67-3.67V395.13s1.58-13.92-23-17.33l3.58,5.27,8.92,3.23L165.41,399l-.5,35.17Z"/><path class="cls-26" d="M148.16,384s14.17-.33,14.67,12.67v37s1.17,4.17,4.67,0V394.38s-2.5-13.75-19.33-16.58Z"/><polyline class="cls-6" points="228.54 484.38 235.33 470.79 253.16 480.46 248.07 493.5"/><path class="cls-27" d="M242.66,522.63c9.44-16.84,8.85-27.68,6.5-34.5-3.23-9.37-11.16-15.12-9-23.5,1.26-4.88,5.2-7.8,7.5-9.5,9.92-7.33,18.35-2.77,27-6.5,10.51-4.53,8.05-15.55,19-37.65,6.68-13.45,17.49-35.21,38-44.35,18.94-8.45,27.5-10.5,27.5-10.5,4-1,9.37-2,15-6a34,34,0,0,0,9.5-10.5c4.42-7.06,26.27-11.38,97-2.5"/><path class="cls-28" d="M275.73,490.69l-18.23-8.55s-8.67-7.35-4.33-17.35,18.33-4,18.33-4l13.63,4.34Z"/><circle class="cls-29" cx="268.33" cy="471.96" r="6.83"/><rect class="cls-30" x="36" y="83.82" width="50.4" height="54.3"/><rect class="cls-31" x="91.06" y="30.38" width="5.35" height="34.42"/><path class="cls-32" d="M96.41,30.38h16.92s-3.67,21.13,16,20.75,13-20.75,13-20.75H340.84s-1.67,19.25,14.45,19.25,16-15.75,14.45-21.25h89.34S454.91,52,474.91,50.79s17.5-19.92,15.5-22.42h80.75s-5,20.75,14,20.25,13.62-20.25,13.62-20.25h12.38s-4,12.5,8.63,19.63,27-10.37,23.75-21.12H754s-6.46,23,17.92,22.63c18.5-4.75,14-22.62,14-22.62h8.53s-3.08,20.58,13.25,21.75,21.5-11.5,19.83-18-3.5-14.17-16.83-14-16.25,10.25-16.25,10.25"/><circle class="cls-33" cx="129.29" cy="36.79" r="6.5"/><circle class="cls-33" cx="355.29" cy="34.38" r="6.5"/><circle class="cls-33" cx="585.63" cy="34.38" r="6.5"/><circle class="cls-33" cx="810.66" cy="34.38" r="6.5"/><circle class="cls-11" cx="176.43" cy="48.58" r="13.67"/><circle class="cls-11" cx="131.81" cy="234.98" r="17.11"/><circle class="cls-11" cx="317.55" cy="48.58" r="13.67"/><circle class="cls-11" cx="475.7" cy="34.92" r="13.67"/><circle class="cls-11" cx="769.7" cy="31.88" r="13.67"/><circle class="cls-11" cx="626.7" cy="32.88" r="13.67"/><path class="cls-34" d="M685,26.88V42.63S685,48,693.16,48h69"/><polygon class="cls-35" points="378.33 64.79 378.33 58.13 388.66 58.13 388.66 51.13 393 51.13 393 64.79 378.33 64.79"/><line class="cls-3" x1="776.28" y1="47.96" x2="804" y2="47.96"/><path class="cls-10" d="M835.19,84.39l6.17.33s-4.83,1.33-5.5,28.33S835.19,84.39,835.19,84.39Z"/><circle class="cls-36" cx="405.66" cy="316.79" r="8.67"/><circle class="cls-36" cx="328.2" cy="339.71" r="8.67"/><circle class="cls-36" cx="424.84" cy="214.29" r="8.83"/><rect class="cls-37" x="498.68" y="233.29" width="41.98" height="20.04" rx="2.53" ry="2.53"/><line class="cls-3" x1="424.84" y1="260.63" x2="544.5" y2="260.63"/><line class="cls-3" x1="462.06" y1="260.63" x2="462.06" y2="278.18"/><polygon class="cls-10" points="843.16 150.13 835.91 139.63 835.79 150.13 843.16 150.13"/><rect class="cls-38" x="568.33" y="221.96" width="20.17" height="10.12"/><circle class="cls-38" cx="578.41" cy="218.46" r="10.75"/><rect class="cls-39" x="531.83" y="220.96" width="9.58" height="9.58"/><path class="cls-40" d="M555.16,271.63l-.67-35.5,35.67-.17H742.41s4.24.17,6.42-5.17H588.58l-.42,1.17-17.83.25-1.92-2.75H540.66v2h9.5l.17,40.17S553.5,273.13,555.16,271.63Z"/><line class="cls-38" x1="531.83" y1="220.96" x2="531.83" y2="187.13"/><rect class="cls-41" x="543.16" y="210.63" width="23" height="16.39" rx="1.04" ry="1.04"/><rect class="cls-42" x="544.5" y="203.04" width="57.54" height="3.67" rx="1.48" ry="1.48"/><path class="cls-43" d="M727,148.33a.69.69,0,0,0-.91.36l-23,53.68H545.19a.69.69,0,0,0-.69.69v.28a.69.69,0,0,0,.69.69H703.72a.69.69,0,0,0,.69-.69v-.28a.66.66,0,0,0,0-.11l23-53.72A.69.69,0,0,0,727,148.33Z"/></g></g></svg>