<svg xmlns="http://www.w3.org/2000/svg" viewBox="0 0 169.04 169.04"><defs><style>.cls-1,.cls-3{fill:#b3b3b3;}.cls-1,.cls-2,.cls-3,.cls-4{stroke:#000;stroke-miterlimit:10;}.cls-1,.cls-4{stroke-width:0.25px;}.cls-2{fill:#a09fa1;}.cls-2,.cls-3{stroke-width:0.5px;}.cls-4{fill:#ccc;}.cls-5{fill:none;}</style></defs><title>gear_3_2</title><g id="Calque_2" data-name="Calque 2"><g id="G2"><path class="cls-1" d="M147.8,53.55s28.11-2.15,5.22,8.82S147.8,53.55,147.8,53.55Z"/><path class="cls-1" d="M150.79,68.54s28.11-2.15,5.22,8.82S150.79,68.54,150.79,68.54Z"/><path class="cls-1" d="M153.81,83s28,3.62,3.32,9.7S153.81,83,153.81,83Z"/><path class="cls-1" d="M152.13,98.75s27.51,6.18,2.41,10S152.13,98.75,152.13,98.75Z"/><path class="cls-1" d="M148.28,113.3s26.32,10.09.94,10.21S148.28,113.3,148.28,113.3Z"/><path class="cls-1" d="M141.57,124.58s21.05,18.75-2.73,9.88S141.57,124.58,141.57,124.58Z"/><path class="cls-1" d="M130.86,137.42s18.08,21.63-4.15,9.38S130.86,137.42,130.86,137.42Z"/><path class="cls-1" d="M117.75,145.4s11,25.95-6.69,7.77S117.75,145.4,117.75,145.4Z"/><path class="cls-1" d="M105.12,151.54s4.29,27.86-8.4,5.88S105.12,151.54,105.12,151.54Z"/><path class="cls-1" d="M92,154.45s-1.35,28.16-9.4,4.09S92,154.45,92,154.45Z"/><path class="cls-1" d="M76.49,153s-5.19,27.71-9.88,2.76S76.49,153,76.49,153Z"/><path class="cls-1" d="M62.18,151.87s-14.76,24-10.21-1S62.18,151.87,62.18,151.87Z"/><path class="cls-1" d="M49.37,144.76S32.84,167.6,39.26,143,49.37,144.76,49.37,144.76Z"/><path class="cls-1" d="M35.77,136.87s-20.63,19.22-9.59-3.64S35.77,136.87,35.77,136.87Z"/><path class="cls-1" d="M25.37,124.47s-26.59,9.36-7.33-7.17S25.37,124.47,25.37,124.47Z"/><path class="cls-1" d="M17.14,109s-26.59,9.36-7.33-7.17S17.14,109,17.14,109Z"/><circle class="cls-2" cx="84.52" cy="84.52" r="72" transform="translate(-27.62 125.89) rotate(-65.25)"/><circle class="cls-3" cx="84.28" cy="83.86" r="7.25" transform="translate(-27.16 125.28) rotate(-65.25)"/><circle class="cls-4" cx="108.86" cy="47.84" r="5.5" transform="translate(19.83 126.67) rotate(-65.25)"/><circle class="cls-5" cx="84.52" cy="84.52" r="84.5" transform="translate(-27.62 125.89) rotate(-65.25)"/></g></g></svg>