<svg xmlns="http://www.w3.org/2000/svg" viewBox="0 0 374.06 80.24"><defs><style>.cls-1{fill:none;stroke:#000;stroke-miterlimit:10;stroke-width:2px;}</style></defs><title>Fichier 23</title><g id="Calque_2" data-name="Calque 2"><g id="power"><path class="cls-1" d="M7.56,1.1a129.68,129.68,0,0,0-6,29C-.38,51.81,3.06,76,7.15,76.21c1.12.06,2.78-1.68,5.08-9.78"/><path class="cls-1" d="M21.11,2.46a129.68,129.68,0,0,0-6,29c-1.94,21.72,1.5,45.91,5.59,46.11,1.12.06,4.89-2.68,7.18-10.78"/><path class="cls-1" d="M35.78,4.13a129.68,129.68,0,0,0-6,29c-1.94,21.72,1.5,46,5.59,46.11,2.41,0,6.51-4.77,5.3-12.82"/><path class="cls-1" d="M49.62,2.46a129.68,129.68,0,0,0-6,29c-1.94,21.72,1.5,45.91,5.59,46.11,1.12.06,2.78-1.68,5.08-9.78"/><path class="cls-1" d="M69.94,1.1a129.68,129.68,0,0,0-6,29C62,51.81,65.45,76,69.54,76.21c1.12.06,2.78-1.68,5.08-9.78"/><path class="cls-1" d="M87.85.31a129.68,129.68,0,0,0-6,29C79.91,51,83.35,75.22,87.44,75.43c1.12.06,2.78-1.68,5.08-9.78"/><path class="cls-1" d="M104.29.31a129.68,129.68,0,0,0-6,29C96.36,51,99.8,75.22,103.89,75.43c1.12.06,2.78-1.68,5.08-9.78"/><path class="cls-1" d="M120.74.31a129.68,129.68,0,0,0-6,29c-1.94,21.72,1.5,45.91,5.59,46.11,1.12.06,2.78-1.68,5.08-9.78"/><path class="cls-1" d="M137.19.31a129.68,129.68,0,0,0-6,29c-1.94,21.72,1.5,45.91,5.59,46.11,1.12.06,2.78-1.68,5.08-9.78"/><path class="cls-1" d="M151.64.31a129.68,129.68,0,0,0-6,29c-1.94,21.72,1.5,45.91,5.59,46.11,1.12.06,2.78-1.68,5.08-9.78"/><path class="cls-1" d="M166.1.31a129.68,129.68,0,0,0-6,29c-1.94,21.72,1.5,45.91,5.59,46.11,1.12.06,2.78-1.68,5.08-9.78"/><path class="cls-1" d="M180.55.31a129.68,129.68,0,0,0-6,29c-1.94,21.72,1.5,45.91,5.59,46.11,1.12.06,2.78-1.68,5.08-9.78"/><path class="cls-1" d="M195,.31a129.68,129.68,0,0,0-6,29c-1.94,21.72,1.5,45.91,5.59,46.11,1.12.06,2.78-1.68,5.08-9.78"/><path class="cls-1" d="M209.45.31a129.68,129.68,0,0,0-6,29C201.51,51,205,75.22,209,75.43c1.12.06,2.78-1.68,5.08-9.78"/><path class="cls-1" d="M223.91.31a129.68,129.68,0,0,0-6,29C216,51,219.41,75.22,223.5,75.43c1.12.06,2.78-1.68,5.08-9.78"/><path class="cls-1" d="M238.36.31a129.68,129.68,0,0,0-6,29c-1.94,21.72,1.5,45.91,5.59,46.11,1.12.06,2.78-1.68,5.08-9.78"/><path class="cls-1" d="M252.81.31a129.68,129.68,0,0,0-6,29c-1.94,21.72,1.5,45.91,5.59,46.11,1.12.06,2.78-1.68,5.08-9.78"/><path class="cls-1" d="M267.26.31a129.68,129.68,0,0,0-6,29c-1.94,21.72,1.5,45.91,5.59,46.11,1.12.06,2.78-1.68,5.08-9.78"/><path class="cls-1" d="M281.72.31a129.68,129.68,0,0,0-6,29c-1.94,21.72,1.5,45.91,5.59,46.11,1.12.06,2.78-1.68,5.08-9.78"/><path class="cls-1" d="M296.17.31a129.68,129.68,0,0,0-6,29c-1.94,21.72,1.5,45.91,5.59,46.11,1.12.06,2.78-1.68,5.08-9.78"/><path class="cls-1" d="M310.62.31a129.68,129.68,0,0,0-6,29c-1.94,21.72,1.5,45.91,5.59,46.11,1.12.06,2.78-1.68,5.08-9.78"/><path class="cls-1" d="M325.07.31a129.68,129.68,0,0,0-6,29c-1.94,21.72,1.5,45.91,5.59,46.11,1.12.06,2.78-1.68,5.08-9.78"/><path class="cls-1" d="M339.53.31a129.68,129.68,0,0,0-6,29C331.59,51,335,75.22,339.12,75.43c1.12.06,2.78-1.68,5.08-9.78"/><path class="cls-1" d="M354,.31a129.68,129.68,0,0,0-6,29C346,51,349.48,75.22,353.57,75.43c1.12.06,2.78-1.68,5.08-9.78"/><path class="cls-1" d="M368.43.31a129.68,129.68,0,0,0-6,29C360.49,51,363.94,75.22,368,75.43c1.12.06,2.78-1.68,5.08-9.78"/></g></g></svg>