<svg xmlns="http://www.w3.org/2000/svg" xmlns:xlink="http://www.w3.org/1999/xlink" viewBox="0 0 424.51 113.25"><defs><style>.cls-1{fill:url(#Dégradé_sans_nom);}.cls-2{fill:#8e8d8e;stroke:#000;stroke-miterlimit:10;stroke-width:0.25px;}</style><linearGradient id="Dégradé_sans_nom" x1="212.25" y1="-20.33" x2="212.25" y2="145.78" gradientUnits="userSpaceOnUse"><stop offset="0" stop-color="#fff"/><stop offset="1"/></linearGradient></defs><title>Fichier 18</title><g id="Calque_2" data-name="Calque 2"><g id="piston"><path class="cls-1" d="M0,0H424.51V102H25.13l-5.5,11.25H1.13S4.63,16,0,0Z"/><polygon class="cls-2" points="28.19 109.63 36.27 109.63 40.71 102 25.13 102 28.19 109.63"/><polygon class="cls-2" points="44.81 109.63 52.9 109.63 57.33 102 41.75 102 44.81 109.63"/><polygon class="cls-2" points="61.43 109.63 69.52 109.63 73.95 102 58.37 102 61.43 109.63"/><polygon class="cls-2" points="78.06 109.63 86.14 109.63 90.58 102 74.99 102 78.06 109.63"/><polygon class="cls-2" points="94.68 109.63 102.76 109.63 107.2 102 91.62 102 94.68 109.63"/><polygon class="cls-2" points="111.3 109.63 119.39 109.63 123.82 102 108.24 102 111.3 109.63"/><polygon class="cls-2" points="127.92 109.63 136.01 109.63 140.44 102 124.86 102 127.92 109.63"/><polygon class="cls-2" points="144.55 109.63 152.63 109.63 157.07 102 141.48 102 144.55 109.63"/><polygon class="cls-2" points="161.17 109.63 169.25 109.63 173.69 102 158.11 102 161.17 109.63"/><polygon class="cls-2" points="177.79 109.63 185.88 109.63 190.31 102 174.73 102 177.79 109.63"/><polygon class="cls-2" points="194.41 109.63 202.5 109.63 206.94 102 191.35 102 194.41 109.63"/><polygon class="cls-2" points="211.04 109.63 219.12 109.63 223.56 102 207.97 102 211.04 109.63"/><polygon class="cls-2" points="227.66 109.63 235.74 109.63 240.18 102 224.6 102 227.66 109.63"/><polygon class="cls-2" points="244.28 109.63 252.37 109.63 256.8 102 241.22 102 244.28 109.63"/><polygon class="cls-2" points="260.9 109.63 268.99 109.63 273.43 102 257.84 102 260.9 109.63"/><polygon class="cls-2" points="277.53 109.63 285.61 109.63 290.05 102 274.46 102 277.53 109.63"/><polygon class="cls-2" points="294.15 109.63 302.23 109.63 306.67 102 291.09 102 294.15 109.63"/><polygon class="cls-2" points="310.77 109.63 318.86 109.63 323.29 102 307.71 102 310.77 109.63"/><polygon class="cls-2" points="327.4 109.63 335.48 109.63 339.92 102 324.33 102 327.4 109.63"/><polygon class="cls-2" points="344.02 109.63 352.1 109.63 356.54 102 340.95 102 344.02 109.63"/><polygon class="cls-2" points="360.64 109.63 368.73 109.63 373.16 102 357.58 102 360.64 109.63"/><polygon class="cls-2" points="377.26 109.63 385.35 109.63 389.78 102 374.2 102 377.26 109.63"/></g></g></svg>