<svg xmlns="http://www.w3.org/2000/svg" viewBox="0 0 91.7 18.57"><defs><style>.cls-1{fill:none;stroke:#000;stroke-miterlimit:10;stroke-width:0.5px;}</style></defs><title>Fichier 34</title><g id="Calque_2" data-name="Calque 2"><g id="switch"><path class="cls-1" d="M8.95.44c-.34.08-7.59,1.84-8.59,7a6.47,6.47,0,0,0,.12,2.88c1,4.15,5.94,8.14,10.86,7.58,6.68-.77,11-9.66,8.52-14.13C17.75-.06,11.2.24,10.7.27,9.31.35,4.33.63,2.09,4.71c-2.33,4.24.4,8.79.53,9a10.24,10.24,0,0,0,11.94,4c4.62-1.71,6-6.52,6.38-7.91,1.08-4.56-1.35-8-.82-8.24s4.65,4.72,4,10.4c-.18,1.64-.78,3.73-1.21,3.69-1.07-.1-1.89-13.53.17-14,1.37-.31,4.6,5,4.23,10.25-.14,2.06-.86,4.29-1.23,4.25-.94-.11-.9-14.74,1-15,1-.14,2.71,4,3,7.69.32,3.53-.57,6.93-1,6.9-.77-.06-1.07-13.7.42-13.92.83-.12,2.39,3.91,2.6,7.77.17,3.09-.53,6.09-.85,6.06-.7-.05-.91-14.66.42-14.81.78-.09,2.37,4.81,2.31,9.69,0,2.48-.49,5.14-.75,5.13-.6,0-1-14.59.38-14.75.72-.09,2,4,2.27,7.83.23,3.58-.47,7-.77,7-.61,0-.79-14.36.5-14.5.66-.07,1.74,3.58,2.1,6.65.49,4.12-.2,7.93-.48,7.92-.55,0-.91-14.59.38-14.75C38.37,1,39.49,4.6,39.86,7.8c.5,4.3-.33,8.15-.58,8.12-.58,0-.9-15.05.63-15.25.78-.1,2.09,3.63,2.46,7,.49,4.37-.62,8.33-1,8.29-.69-.08-.34-15.09.94-15.19C43,.69,44,4.67,44.25,7.8c.38,4-.22,7.76-.47,7.75-.49,0-.58-14.63.19-14.69.38,0,1,3.6,1.25,6.48.39,4.54-.05,8.59-.25,8.58s-.31-7.67-.31-8.37c0-4.42,0-6.89.38-6.94S46.6,4.15,47,7.76c.42,4.08-.1,7.8-.31,7.79-.42,0-.81-14.69.31-14.81.56-.06,1.52,3.49,1.85,6.6.49,4.6-.37,8.67-.6,8.65C47.72,15.95,48,.91,49,.86c.46,0,1.08,3.63,1.32,6.44A31.28,31.28,0,0,1,50,15.61c-.23,0,.06-14.66.75-14.69.36,0,.87,4,1,7.17.25,4.58-.19,7.31,0,7.33s1.25-3.66,1.23-8.08c0-3.27-.6-6.31-.79-6.29-.42,0,.06,14.6.94,14.62.48,0,1.16-4.3,1.1-8.29,0-3.12-.54-6.16-.73-6.15-.4,0-.05,14.47.81,14.5.48,0,1.19-4.34,1.22-8.37A25.28,25.28,0,0,0,55,.86c-.33,0,0,14.53.81,14.56.46,0,1.14-4.27,1.24-8.05a28.3,28.3,0,0,0-.37-6.32c-.26,0-.19,14.59.5,14.62.37,0,1-4.26,1.09-8.27A36.57,36.57,0,0,0,58,1.11c-.17,0-.14,14.28.63,14.31.41,0,1.07-4,1.16-7.81a30.61,30.61,0,0,0-.41-6.51c-.19,0,.23,13.86.88,13.87.34,0,.79-3.88.79-7.4A30.82,30.82,0,0,0,60.53.93c-.26,0,.16,14.61.88,14.62.38,0,.9-4.16.92-7.94A31.65,31.65,0,0,0,61.78.74c-.27,0,0,14.59.88,14.62.44,0,1.08-4,1.1-7.75A25.57,25.57,0,0,0,63.09.86c-.29,0,.45,14.5,1.13,14.5.36,0,.75-4,.67-7.69a29.65,29.65,0,0,0-.73-6.62C63.88,1.08,64.76,16,65.4,16c.34,0,.66-4.23.54-8A35.34,35.34,0,0,0,65.15.68c-.28,0,.43,14.86,1.31,14.87.45,0,1-3.91,1-7.5,0-4-.75-7.52-.92-7.5-.33,0,.62,15,1.75,15,.59,0,1.2-4.12,1.31-7.21C69.74,4.4,69.14.91,69,.93c-.36,0,.32,14.63.69,14.62S70.52,1.27,70,1.24c-.27,0-.62,4.13-.7,7.1-.12,4.38.36,5.69,1.26,6.27a2.91,2.91,0,0,0,1.88.31c8.92-.52,16.05,4.29,18.31,1.5a3.61,3.61,0,0,0,.31-3.69c-1.89-3.7-12.23-3-13.44.06A3.18,3.18,0,0,0,78.72,16c1.36,1.23,3.78,1.26,6.06-.06"/></g></g></svg>