<svg xmlns="http://www.w3.org/2000/svg" viewBox="0 0 134.14 25.13"><defs><style>.cls-1{fill:none;stroke:#4b423b;stroke-miterlimit:10;}</style></defs><title>spring</title><g id="Calque_2" data-name="Calque 2"><g id="ressort"><path class="cls-1" d="M.48,11.29c.23.85,2.64,9.4,10.24,11.73a11.3,11.3,0,0,0,7.26.1C27.34,19.6,26.22,1.1,30.15,1,32.36.88,35,6.65,34.67,11.85c-.4,5.55-4.28,10.17-5.18,9.78-1.68-.73,4-20.32,6.67-20,1.45.17,2,6.19,1.79,10.1-.27,5.62-2.25,12-3.46,11.9-1.37-.15-2.5-8.8,1-15.65.61-1.22,1.83-3.62,3.21-3.52,1.8.13,3.06,4.45,3.35,7.65.53,5.87-1.91,11.33-2.52,11.19C38.37,23,41.09,3.6,43.15,3.63c1.08,0,2.11,5.39,2.23,9.73.19,6.59-1.69,11.19-1.4,11.27s2.43-4.22,3.09-10c.7-6.1-.65-10.46-.42-10.5s2,5.24,2,12c0,4.35-.72,8.52-1,8.5-.62,0-.34-19.92,1-20,.71,0,1.72,5.37,2.08,9.67a44.69,44.69,0,0,1-.08,9.17c-.18,0-.68-18.62,1.17-18.83.94-.11,2.53,4.51,2.83,8.83C55,18.85,53.42,23.69,53,23.63,52.13,23.49,53.59,4,55.15,4c.91,0,2.26,6.54,1.5,13-.41,3.49-1.47,7.23-1.83,7.17C54,24,55.29,4.68,57.75,4.54c1.27-.07,2.84,4.94,3,9.19.19,5.16-1.7,9.86-2.25,9.75-1.17-.22,0-18.93,2.31-19.12,1.27-.1,3,5.15,3.26,9.75.24,4.8-1.16,9.25-1.64,9.19-1-.13-.46-18.74,1.63-18.94,1.28-.12,3.81,6.6,2.75,13.19C66.31,20.67,65,24,64.44,23.85c-1.21-.26.81-19.46,3-19.5,1.18,0,2.59,5.49,2.29,10.38-.27,4.37-1.92,8.55-2.48,8.43-1.17-.24.82-19.62,2.5-19.62,1,0,2.47,7.39,1.31,14.56-.34,2.09-1,5-1.31,4.94-.7-.1.17-18,2.19-18.12,1.17-.07,3.12,5.8,2.31,11.44-.47,3.26-1.9,6.75-2.5,6.63-1.31-.28.23-18.32,2.5-18.44,1.24-.07,2.86,5.15,2.76,9.75-.09,4.14-1.59,8.35-2.26,8.25-1.34-.2-1-17.9,1.5-18.25,1.34-.19,3.47,4.56,3.81,8.87.41,5.07-1.61,9.87-2.31,9.75C76.4,22.69,77.29,4,79.69,3.79c1.32-.13,3.37,5.27,3.5,10.29.11,4.29-1.18,8.33-1.62,8.27-.94-.13-.32-18.7,2.06-18.94C85,3.28,87,8.85,87.15,14c.1,4.64-1.38,9.12-2,9C84,22.88,84.26,4.17,86.94,3.79,88.43,3.58,91,9,91,14.13c.06,4.61-1.85,9.05-2.58,8.92C87,22.78,87.72,4.42,90.57,4c1.64-.22,4.28,5.48,4.46,10.79.14,4-1.1,8.1-1.75,8-1.32-.12-2.41-17.63.79-18.46,2-.51,5.89,5.12,6.46,10.83.37,3.67-.63,7.56-1.33,7.54-1.55,0-3.87-19.16-.75-20.12,1.83-.57,5.87,5,7,10.79.84,4.43-.05,9-.75,9-1.51,0-3.82-21.37-2.21-21.71.31-.07.73.68,3.69,7.63,4.63,10.86,4.94,12.14,6.69,13.5,3.71,2.87,10.34,3.32,15.13-.12s7.43-10.46,4.44-15.69C128.83-.12,118.57-1.46,114,3.6a10.92,10.92,0,0,0,.19,14.06c3.3,3.5,8.26,3,9.75,2.81,3.83-.41,8.5-2.6,8.78-5.24a14.18,14.18,0,0,0-.16-1.64,42.81,42.81,0,0,1,.06-4.75c-.18-2.61-3.86-5.41-7.25-5.81-5.72-.69-12.24,5.24-11.12,10.37.64,2.92,3.66,5.18,7.25,6.13"/></g></g></svg>