<svg xmlns="http://www.w3.org/2000/svg" viewBox="0 0 188.55 86.51"><defs><style>.cls-1{fill:#f9f8f9;}.cls-2{fill:#c89445;stroke:#000;stroke-miterlimit:10;stroke-width:0.25px;}.cls-3{fill:#353233;}.cls-4{fill:#cf9741;}</style></defs><title>Fichier 20</title><g id="Calque_2" data-name="Calque 2"><g id="spring_guide"><path class="cls-1" d="M34.6,3.46H17.77L10.94,57,22.77,83.79h17S14.27,62.46,34.6,3.46Z"/><path class="cls-2" d="M8.48.13H21.41s-15,61.67,2.94,84.5L8.48,86.38S-10.31,38.46,8.48.13Z"/><path class="cls-3" d="M43.94,43.63c0,22.18.5,40.17-3,40.17s-15.58-18-15.58-40.17S31.1,3.46,34.6,3.46,43.94,21.44,43.94,43.63Z"/><path class="cls-4" d="M35.38,15.46,173.6,19.13s14.18,1.18,14.92,23.26-15,23.41-15,23.41l-135.33,4S29.16,40.46,35.38,15.46Z"/></g></g></svg>