<svg xmlns="http://www.w3.org/2000/svg" viewBox="0 0 659.81 194.15"><defs><style>.cls-1{fill:#010001;}</style></defs><title>tappet_plate</title><g id="Calque_2" data-name="Calque 2"><g id="delayeur"><path class="cls-1" d="M9.25,89.09S-.42,86.67,0,96s4.77,9.7,4.77,9.7l23,88.46L50.2,194l7-9.44S54,130.76,76.54,118.13l.92-12.44s-1-3.58,5.83-3.39H217l4.5,7.19h47l3.25-7.19H351V119H340.79l.5,11,19-.25s6.25-2.92,7.75-7.83V102.31H557.29s7.17-2.69,6.83-13.5,0-49.48,0-49.48h87.66s8.5-3.33,8-19.83S652.54,0,649.29,0,599,1.25,599,1.25L598,0H549.62V88.5Z"/></g></g></svg>