<svg xmlns="http://www.w3.org/2000/svg" viewBox="0 0 110.51 254.2"><defs><style>.cls-1{fill:#999;}.cls-1,.cls-2,.cls-4,.cls-5{stroke:#000;stroke-miterlimit:10;}.cls-1,.cls-4{stroke-width:0.5px;}.cls-2{fill:#e6e6e6;}.cls-2,.cls-5{stroke-width:0.25px;}.cls-3{fill:#b3b3b3;}.cls-4{fill:none;}.cls-5{fill:gray;}</style></defs><title>Fichier 13</title><g id="Calque_2" data-name="Calque 2"><g id="trigger"><path class="cls-1" d="M33.79,16.88l4.53,69.44s3.12,5.5-9,11-12.21,6.15-12.21,6.15c-13.67,3.89-27.81,17.25-4,15.22l19.48-3s8.48-.27,4.33,10.29c-3.6,9.15-18.38,63.78,37,108.27a176.88,176.88,0,0,0,31,19.7c10.5-3.18,2.44-9.15,2.44-9.15s-54.52-27-40.86-96c6.84-28.62,12.46-42.72,12.46-42.72S86.2,95.21,72.85,81.8s3.87-27.52,3.87-27.52,12.78-20.49,8.55-25.13S59.19-24.83,33.79,16.88Z"/><circle class="cls-2" cx="55.7" cy="58.17" r="9.75" transform="translate(-10.21 11.88) rotate(-11.16)"/><circle class="cls-3" cx="55.7" cy="58.17" r="6.25" transform="translate(-10.21 11.88) rotate(-11.16)"/><path class="cls-4" d="M31.09,115.52s36.16-9.17,30.4,18.46S40.91,170.91,76.76,237.23"/><circle class="cls-5" cx="64.82" cy="101.81" r="5.75" transform="translate(-18.49 14.48) rotate(-11.16)"/></g></g></svg>